<?xml version="1.0" encoding="UTF-8"?>
<svg id="Layer_3" data-name="Layer 3" xmlns="http://www.w3.org/2000/svg" viewBox="0 0 100.44 100.44">
  <defs>
    <style>
      .cls-1 {
        fill: none;
        stroke: #dc7373;
        stroke-width: 6px;
      }

      .cls-1, .cls-2 {
        stroke-miterlimit: 10;
      }

      .cls-2 {
        fill: #fff;
        stroke: #fff;
        stroke-width: 1.2px;
      }

      .cls-3 {
        fill: #dc7373;
      }
    </style>
  </defs>
  <circle class="cls-3" cx="50.22" cy="50.22" r="47.22"/>
  <path class="cls-2" d="M33.37,6.11V51.18c0,3.43-.53,6.27-1.6,8.54-1.02,2.36-2.43,4.26-4.24,5.69-3.7,2.92-7.59,4.33-11.67,4.24-3.06,0-5.72-.72-7.99-2.15-.76-.4-1.45-.86-2.12-1.34,2.59,7.22,6.89,13.63,12.42,18.74,7.73-.48,14.58-3.32,20.53-8.58,6.48-5.56,9.81-13.42,10-23.61V3.04c-5.39,.17-10.56,1.24-15.35,3.07Z"/>
  <path class="cls-2" d="M97.44,50.22c0-.77-.02-1.54-.06-2.3h-20.78l9.43-28.46c-3.15-3.66-6.84-6.83-10.96-9.39l-26.94,74.1h16.25l7.78-22.64h23.91c.89-3.63,1.37-7.41,1.37-11.31Z"/>
  <circle class="cls-1" cx="50.22" cy="50.22" r="47.22"/>
</svg>